# xmcd
# 
# Track frame offsets:
#     150
#     16529
#     29922
#     50308
#     75638
# 
# Disc length: 1393
# 
# Revision: 0
# Processed by: cddbd v1.5.2PL0 Copyright (c) Steve Scherf et al.
# Submitted via: fre:ac v1.0.17
# 
DISCID=30056f05
DTITLE=bomi - キーゼルバッハ
DYEAR=2012
DGENRE=JPop
TTITLE0=キューティクル・ガール
TTITLE1=PANIC☆アルバイター
TTITLE2=＋magnet－
TTITLE3=オオカミと少年
TTITLE4=Someday
EXTD=
EXTT0=
EXTT1=
EXTT2=
EXTT3=
EXTT4=
PLAYORDER=
